<?xml version="1.0" standalone="no"?>
<!DOCTYPE svg PUBLIC "-//W3C//DTD SVG 20010904//EN"
 "http://www.w3.org/TR/2001/REC-SVG-20010904/DTD/svg10.dtd">
<svg version="1.0" xmlns="http://www.w3.org/2000/svg"
 width="512.000000pt" height="512.000000pt" viewBox="0 0 512.000000 512.000000"
 preserveAspectRatio="xMidYMid meet">
<metadata>
Created by potrace 1.11, written by Peter Selinger 2001-2013
</metadata>
<g transform="translate(0.000000,512.000000) scale(0.100000,-0.100000)"
fill="#000000" stroke="none">
<path d="M2498 5116 c-1 -2 -43 -7 -92 -10 -419 -32 -859 -191 -1175 -426
-106 -78 -129 -98 -231 -200 -131 -131 -222 -246 -311 -393 -28 -45 -54 -89
-59 -97 -54 -88 -187 -416 -216 -530 -23 -95 -63 -275 -69 -310 -4 -25 -9 -54
-11 -65 -2 -11 -6 -40 -9 -65 -3 -25 -7 -61 -10 -80 -20 -151 -26 -526 -12
-700 75 -892 506 -1606 1190 -1968 241 -128 527 -218 787 -248 30 -3 77 -10
103 -14 56 -8 492 -5 557 4 219 33 353 61 485 104 530 173 951 552 1206 1087
65 136 126 298 164 430 14 50 28 97 31 107 6 19 15 16 -486 168 -624 190 -721
219 -738 222 -12 2 -19 -11 -29 -57 -83 -385 -161 -562 -317 -719 -166 -166
-375 -242 -661 -240 -379 2 -653 171 -823 509 -53 106 -107 268 -126 380 -13
77 -25 153 -30 185 -20 148 -26 478 -12 655 12 136 12 142 25 210 6 33 14 74
17 90 9 50 24 106 50 182 156 460 482 689 964 678 372 -9 631 -158 778 -450
27 -55 76 -196 97 -282 9 -40 20 -73 24 -73 6 0 249 55 641 146 85 20 162 37
170 39 275 61 439 101 445 107 8 8 -61 226 -108 344 -268 666 -772 1091 -1462
1232 -55 12 -127 24 -160 28 -33 3 -69 9 -80 11 -22 6 -501 13 -507 9z"/>
</g>
</svg>
